<mxfile host="65bd71144e" pages="2">
    <diagram id="1_LJAoiztnNt6iOVfpd4" name="Architecture">
        <mxGraphModel dx="2121" dy="452" grid="1" gridSize="10" guides="1" tooltips="1" connect="1" arrows="1" fold="1" page="1" pageScale="1" pageWidth="827" pageHeight="1169" math="0" shadow="0">
            <root>
                <mxCell id="0"/>
                <mxCell id="1" parent="0"/>
                <mxCell id="WfbO1BPPiGSPMY72WYpd-1" value="VPC" style="points=[[0,0],[0.25,0],[0.5,0],[0.75,0],[1,0],[1,0.25],[1,0.5],[1,0.75],[1,1],[0.75,1],[0.5,1],[0.25,1],[0,1],[0,0.75],[0,0.5],[0,0.25]];outlineConnect=0;gradientColor=none;html=1;whiteSpace=wrap;fontSize=12;fontStyle=0;container=1;pointerEvents=0;collapsible=0;recursiveResize=0;shape=mxgraph.aws4.group;grIcon=mxgraph.aws4.group_vpc;strokeColor=#248814;fillColor=none;verticalAlign=top;align=left;spacingLeft=30;fontColor=#AAB7B8;dashed=0;" parent="1" vertex="1">
                    <mxGeometry x="40" y="120" width="830" height="770" as="geometry"/>
                </mxCell>
                <mxCell id="WfbO1BPPiGSPMY72WYpd-65" value="" style="rounded=0;whiteSpace=wrap;html=1;" parent="WfbO1BPPiGSPMY72WYpd-1" vertex="1">
                    <mxGeometry x="80" y="359" width="730" height="390" as="geometry"/>
                </mxCell>
                <mxCell id="WfbO1BPPiGSPMY72WYpd-18" value="Deploy to S3" style="edgeStyle=orthogonalEdgeStyle;rounded=0;orthogonalLoop=1;jettySize=auto;html=1;exitX=0;exitY=0.5;exitDx=0;exitDy=0;exitPerimeter=0;entryX=1;entryY=0.5;entryDx=0;entryDy=0;entryPerimeter=0;" parent="WfbO1BPPiGSPMY72WYpd-1" source="WfbO1BPPiGSPMY72WYpd-12" target="WfbO1BPPiGSPMY72WYpd-14" edge="1">
                    <mxGeometry relative="1" as="geometry"/>
                </mxCell>
                <mxCell id="WfbO1BPPiGSPMY72WYpd-12" value="" style="sketch=0;points=[[0,0,0],[0.25,0,0],[0.5,0,0],[0.75,0,0],[1,0,0],[0,1,0],[0.25,1,0],[0.5,1,0],[0.75,1,0],[1,1,0],[0,0.25,0],[0,0.5,0],[0,0.75,0],[1,0.25,0],[1,0.5,0],[1,0.75,0]];outlineConnect=0;fontColor=#232F3E;gradientColor=#4D72F3;gradientDirection=north;fillColor=#3334B9;strokeColor=#ffffff;dashed=0;verticalLabelPosition=bottom;verticalAlign=top;align=center;html=1;fontSize=12;fontStyle=0;aspect=fixed;shape=mxgraph.aws4.resourceIcon;resIcon=mxgraph.aws4.codebuild;" parent="WfbO1BPPiGSPMY72WYpd-1" vertex="1">
                    <mxGeometry x="320" y="40" width="38" height="38" as="geometry"/>
                </mxCell>
                <mxCell id="WfbO1BPPiGSPMY72WYpd-17" value="CodeBuild" style="edgeStyle=orthogonalEdgeStyle;rounded=0;orthogonalLoop=1;jettySize=auto;html=1;exitX=0;exitY=0.5;exitDx=0;exitDy=0;exitPerimeter=0;entryX=1;entryY=0.5;entryDx=0;entryDy=0;entryPerimeter=0;" parent="WfbO1BPPiGSPMY72WYpd-1" source="WfbO1BPPiGSPMY72WYpd-13" target="WfbO1BPPiGSPMY72WYpd-12" edge="1">
                    <mxGeometry relative="1" as="geometry"/>
                </mxCell>
                <mxCell id="WfbO1BPPiGSPMY72WYpd-13" value="" style="sketch=0;points=[[0,0,0],[0.25,0,0],[0.5,0,0],[0.75,0,0],[1,0,0],[0,1,0],[0.25,1,0],[0.5,1,0],[0.75,1,0],[1,1,0],[0,0.25,0],[0,0.5,0],[0,0.75,0],[1,0.25,0],[1,0.5,0],[1,0.75,0]];outlineConnect=0;fontColor=#232F3E;gradientColor=#4D72F3;gradientDirection=north;fillColor=#3334B9;strokeColor=#ffffff;dashed=0;verticalLabelPosition=bottom;verticalAlign=top;align=center;html=1;fontSize=12;fontStyle=0;aspect=fixed;shape=mxgraph.aws4.resourceIcon;resIcon=mxgraph.aws4.codepipeline;" parent="WfbO1BPPiGSPMY72WYpd-1" vertex="1">
                    <mxGeometry x="440" y="40" width="38" height="38" as="geometry"/>
                </mxCell>
                <mxCell id="WfbO1BPPiGSPMY72WYpd-14" value="" style="sketch=0;points=[[0,0,0],[0.25,0,0],[0.5,0,0],[0.75,0,0],[1,0,0],[0,1,0],[0.25,1,0],[0.5,1,0],[0.75,1,0],[1,1,0],[0,0.25,0],[0,0.5,0],[0,0.75,0],[1,0.25,0],[1,0.5,0],[1,0.75,0]];outlineConnect=0;fontColor=#232F3E;gradientColor=#60A337;gradientDirection=north;fillColor=#277116;strokeColor=#ffffff;dashed=0;verticalLabelPosition=bottom;verticalAlign=top;align=center;html=1;fontSize=12;fontStyle=0;aspect=fixed;shape=mxgraph.aws4.resourceIcon;resIcon=mxgraph.aws4.s3;" parent="WfbO1BPPiGSPMY72WYpd-1" vertex="1">
                    <mxGeometry x="120" y="40" width="38" height="38" as="geometry"/>
                </mxCell>
                <mxCell id="WfbO1BPPiGSPMY72WYpd-16" value="Trigger FE Build" style="edgeStyle=orthogonalEdgeStyle;rounded=0;orthogonalLoop=1;jettySize=auto;html=1;exitX=0;exitY=0.5;exitDx=0;exitDy=0;entryX=1;entryY=0.5;entryDx=0;entryDy=0;entryPerimeter=0;" parent="WfbO1BPPiGSPMY72WYpd-1" source="WfbO1BPPiGSPMY72WYpd-15" target="WfbO1BPPiGSPMY72WYpd-13" edge="1">
                    <mxGeometry relative="1" as="geometry"/>
                </mxCell>
                <mxCell id="WfbO1BPPiGSPMY72WYpd-63" value="Trigger CloudFormation Update" style="edgeStyle=orthogonalEdgeStyle;rounded=1;orthogonalLoop=1;jettySize=auto;html=1;exitX=0.5;exitY=1;exitDx=0;exitDy=0;entryX=0.5;entryY=0;entryDx=0;entryDy=0;entryPerimeter=0;startArrow=none;startFill=0;" parent="WfbO1BPPiGSPMY72WYpd-1" source="WfbO1BPPiGSPMY72WYpd-15" target="WfbO1BPPiGSPMY72WYpd-62" edge="1">
                    <mxGeometry relative="1" as="geometry"/>
                </mxCell>
                <mxCell id="WfbO1BPPiGSPMY72WYpd-15" value="Merge to master" style="text;html=1;strokeColor=none;fillColor=none;align=center;verticalAlign=middle;whiteSpace=wrap;rounded=0;fontStyle=1" parent="WfbO1BPPiGSPMY72WYpd-1" vertex="1">
                    <mxGeometry x="652" y="44" width="60" height="30" as="geometry"/>
                </mxCell>
                <mxCell id="WfbO1BPPiGSPMY72WYpd-20" value="" style="sketch=0;points=[[0,0,0],[0.25,0,0],[0.5,0,0],[0.75,0,0],[1,0,0],[0,1,0],[0.25,1,0],[0.5,1,0],[0.75,1,0],[1,1,0],[0,0.25,0],[0,0.5,0],[0,0.75,0],[1,0.25,0],[1,0.5,0],[1,0.75,0]];outlineConnect=0;fontColor=#232F3E;gradientColor=#4D72F3;gradientDirection=north;fillColor=#3334B9;strokeColor=#ffffff;dashed=0;verticalLabelPosition=bottom;verticalAlign=top;align=center;html=1;fontSize=12;fontStyle=0;aspect=fixed;shape=mxgraph.aws4.resourceIcon;resIcon=mxgraph.aws4.dynamodb;" parent="WfbO1BPPiGSPMY72WYpd-1" vertex="1">
                    <mxGeometry x="700" y="659" width="40" height="40" as="geometry"/>
                </mxCell>
                <mxCell id="WfbO1BPPiGSPMY72WYpd-24" value="" style="group" parent="WfbO1BPPiGSPMY72WYpd-1" vertex="1" connectable="0">
                    <mxGeometry x="20" y="40" width="60" height="70" as="geometry"/>
                </mxCell>
                <mxCell id="WfbO1BPPiGSPMY72WYpd-22" value="" style="sketch=0;points=[[0,0,0],[0.25,0,0],[0.5,0,0],[0.75,0,0],[1,0,0],[0,1,0],[0.25,1,0],[0.5,1,0],[0.75,1,0],[1,1,0],[0,0.25,0],[0,0.5,0],[0,0.75,0],[1,0.25,0],[1,0.5,0],[1,0.75,0]];outlineConnect=0;fontColor=#232F3E;gradientColor=#F54749;gradientDirection=north;fillColor=#C7131F;strokeColor=#ffffff;dashed=0;verticalLabelPosition=bottom;verticalAlign=top;align=center;html=1;fontSize=12;fontStyle=0;aspect=fixed;shape=mxgraph.aws4.resourceIcon;resIcon=mxgraph.aws4.cognito;" parent="WfbO1BPPiGSPMY72WYpd-24" vertex="1">
                    <mxGeometry x="10" width="40" height="40" as="geometry"/>
                </mxCell>
                <mxCell id="WfbO1BPPiGSPMY72WYpd-23" value="Cognito User Authentication" style="text;html=1;strokeColor=none;fillColor=none;align=center;verticalAlign=middle;whiteSpace=wrap;rounded=0;fontStyle=1" parent="WfbO1BPPiGSPMY72WYpd-24" vertex="1">
                    <mxGeometry y="40" width="60" height="30" as="geometry"/>
                </mxCell>
                <mxCell id="WfbO1BPPiGSPMY72WYpd-26" value="UserExerciseDB" style="text;html=1;strokeColor=none;fillColor=none;align=center;verticalAlign=middle;whiteSpace=wrap;rounded=0;fontStyle=1" parent="WfbO1BPPiGSPMY72WYpd-1" vertex="1">
                    <mxGeometry x="690" y="699" width="60" height="30" as="geometry"/>
                </mxCell>
                <mxCell id="WfbO1BPPiGSPMY72WYpd-41" style="edgeStyle=orthogonalEdgeStyle;rounded=1;orthogonalLoop=1;jettySize=auto;html=1;exitX=0.5;exitY=1;exitDx=0;exitDy=0;exitPerimeter=0;entryX=0.5;entryY=0;entryDx=0;entryDy=0;entryPerimeter=0;" parent="WfbO1BPPiGSPMY72WYpd-1" source="WfbO1BPPiGSPMY72WYpd-27" target="WfbO1BPPiGSPMY72WYpd-28" edge="1">
                    <mxGeometry relative="1" as="geometry"/>
                </mxCell>
                <mxCell id="WfbO1BPPiGSPMY72WYpd-42" style="edgeStyle=orthogonalEdgeStyle;rounded=1;orthogonalLoop=1;jettySize=auto;html=1;exitX=0.5;exitY=1;exitDx=0;exitDy=0;exitPerimeter=0;entryX=0.5;entryY=0;entryDx=0;entryDy=0;entryPerimeter=0;" parent="WfbO1BPPiGSPMY72WYpd-1" source="WfbO1BPPiGSPMY72WYpd-27" target="WfbO1BPPiGSPMY72WYpd-31" edge="1">
                    <mxGeometry relative="1" as="geometry"/>
                </mxCell>
                <mxCell id="WfbO1BPPiGSPMY72WYpd-43" style="edgeStyle=orthogonalEdgeStyle;rounded=1;orthogonalLoop=1;jettySize=auto;html=1;exitX=0.5;exitY=1;exitDx=0;exitDy=0;exitPerimeter=0;entryX=0.5;entryY=0;entryDx=0;entryDy=0;entryPerimeter=0;" parent="WfbO1BPPiGSPMY72WYpd-1" source="WfbO1BPPiGSPMY72WYpd-27" target="WfbO1BPPiGSPMY72WYpd-33" edge="1">
                    <mxGeometry relative="1" as="geometry"/>
                </mxCell>
                <mxCell id="WfbO1BPPiGSPMY72WYpd-44" style="edgeStyle=orthogonalEdgeStyle;rounded=1;orthogonalLoop=1;jettySize=auto;html=1;exitX=0.5;exitY=1;exitDx=0;exitDy=0;exitPerimeter=0;entryX=0.5;entryY=0;entryDx=0;entryDy=0;entryPerimeter=0;startArrow=classic;startFill=1;" parent="WfbO1BPPiGSPMY72WYpd-1" source="WfbO1BPPiGSPMY72WYpd-27" target="WfbO1BPPiGSPMY72WYpd-39" edge="1">
                    <mxGeometry relative="1" as="geometry"/>
                </mxCell>
                <mxCell id="WfbO1BPPiGSPMY72WYpd-45" style="edgeStyle=orthogonalEdgeStyle;rounded=1;orthogonalLoop=1;jettySize=auto;html=1;exitX=0.5;exitY=1;exitDx=0;exitDy=0;exitPerimeter=0;entryX=0.5;entryY=0;entryDx=0;entryDy=0;entryPerimeter=0;" parent="WfbO1BPPiGSPMY72WYpd-1" source="WfbO1BPPiGSPMY72WYpd-27" target="WfbO1BPPiGSPMY72WYpd-37" edge="1">
                    <mxGeometry relative="1" as="geometry"/>
                </mxCell>
                <mxCell id="WfbO1BPPiGSPMY72WYpd-53" style="edgeStyle=orthogonalEdgeStyle;rounded=1;orthogonalLoop=1;jettySize=auto;html=1;exitX=0.5;exitY=1;exitDx=0;exitDy=0;exitPerimeter=0;entryX=0.5;entryY=0;entryDx=0;entryDy=0;entryPerimeter=0;startArrow=none;startFill=0;" parent="WfbO1BPPiGSPMY72WYpd-1" source="WfbO1BPPiGSPMY72WYpd-27" target="WfbO1BPPiGSPMY72WYpd-51" edge="1">
                    <mxGeometry relative="1" as="geometry"/>
                </mxCell>
                <mxCell id="WfbO1BPPiGSPMY72WYpd-46" style="edgeStyle=orthogonalEdgeStyle;rounded=1;orthogonalLoop=1;jettySize=auto;html=1;exitX=0.5;exitY=1;exitDx=0;exitDy=0;exitPerimeter=0;entryX=0.5;entryY=0;entryDx=0;entryDy=0;entryPerimeter=0;" parent="WfbO1BPPiGSPMY72WYpd-1" source="WfbO1BPPiGSPMY72WYpd-28" target="WfbO1BPPiGSPMY72WYpd-21" edge="1">
                    <mxGeometry relative="1" as="geometry"/>
                </mxCell>
                <mxCell id="WfbO1BPPiGSPMY72WYpd-28" value="" style="sketch=0;points=[[0,0,0],[0.25,0,0],[0.5,0,0],[0.75,0,0],[1,0,0],[0,1,0],[0.25,1,0],[0.5,1,0],[0.75,1,0],[1,1,0],[0,0.25,0],[0,0.5,0],[0,0.75,0],[1,0.25,0],[1,0.5,0],[1,0.75,0]];outlineConnect=0;fontColor=#232F3E;gradientColor=#F78E04;gradientDirection=north;fillColor=#D05C17;strokeColor=#ffffff;dashed=0;verticalLabelPosition=bottom;verticalAlign=top;align=center;html=1;fontSize=12;fontStyle=0;aspect=fixed;shape=mxgraph.aws4.resourceIcon;resIcon=mxgraph.aws4.lambda;" parent="WfbO1BPPiGSPMY72WYpd-1" vertex="1">
                    <mxGeometry x="158" y="500" width="38" height="38" as="geometry"/>
                </mxCell>
                <mxCell id="WfbO1BPPiGSPMY72WYpd-30" value="Create Exercise" style="text;html=1;strokeColor=none;fillColor=none;align=center;verticalAlign=middle;whiteSpace=wrap;rounded=0;fontStyle=1" parent="WfbO1BPPiGSPMY72WYpd-1" vertex="1">
                    <mxGeometry x="98" y="504" width="60" height="30" as="geometry"/>
                </mxCell>
                <mxCell id="WfbO1BPPiGSPMY72WYpd-47" style="edgeStyle=orthogonalEdgeStyle;rounded=1;orthogonalLoop=1;jettySize=auto;html=1;exitX=0.5;exitY=1;exitDx=0;exitDy=0;exitPerimeter=0;entryX=0.5;entryY=0;entryDx=0;entryDy=0;entryPerimeter=0;" parent="WfbO1BPPiGSPMY72WYpd-1" source="WfbO1BPPiGSPMY72WYpd-31" target="WfbO1BPPiGSPMY72WYpd-21" edge="1">
                    <mxGeometry relative="1" as="geometry"/>
                </mxCell>
                <mxCell id="WfbO1BPPiGSPMY72WYpd-31" value="" style="sketch=0;points=[[0,0,0],[0.25,0,0],[0.5,0,0],[0.75,0,0],[1,0,0],[0,1,0],[0.25,1,0],[0.5,1,0],[0.75,1,0],[1,1,0],[0,0.25,0],[0,0.5,0],[0,0.75,0],[1,0.25,0],[1,0.5,0],[1,0.75,0]];outlineConnect=0;fontColor=#232F3E;gradientColor=#F78E04;gradientDirection=north;fillColor=#D05C17;strokeColor=#ffffff;dashed=0;verticalLabelPosition=bottom;verticalAlign=top;align=center;html=1;fontSize=12;fontStyle=0;aspect=fixed;shape=mxgraph.aws4.resourceIcon;resIcon=mxgraph.aws4.lambda;" parent="WfbO1BPPiGSPMY72WYpd-1" vertex="1">
                    <mxGeometry x="282" y="500" width="38" height="38" as="geometry"/>
                </mxCell>
                <mxCell id="WfbO1BPPiGSPMY72WYpd-32" value="Delete Exercise" style="text;html=1;strokeColor=none;fillColor=none;align=center;verticalAlign=middle;whiteSpace=wrap;rounded=0;fontStyle=1" parent="WfbO1BPPiGSPMY72WYpd-1" vertex="1">
                    <mxGeometry x="222" y="504" width="60" height="30" as="geometry"/>
                </mxCell>
                <mxCell id="WfbO1BPPiGSPMY72WYpd-48" style="edgeStyle=orthogonalEdgeStyle;rounded=1;orthogonalLoop=1;jettySize=auto;html=1;exitX=0.5;exitY=1;exitDx=0;exitDy=0;exitPerimeter=0;entryX=0.5;entryY=0;entryDx=0;entryDy=0;entryPerimeter=0;" parent="WfbO1BPPiGSPMY72WYpd-1" source="WfbO1BPPiGSPMY72WYpd-33" target="WfbO1BPPiGSPMY72WYpd-21" edge="1">
                    <mxGeometry relative="1" as="geometry"/>
                </mxCell>
                <mxCell id="WfbO1BPPiGSPMY72WYpd-33" value="" style="sketch=0;points=[[0,0,0],[0.25,0,0],[0.5,0,0],[0.75,0,0],[1,0,0],[0,1,0],[0.25,1,0],[0.5,1,0],[0.75,1,0],[1,1,0],[0,0.25,0],[0,0.5,0],[0,0.75,0],[1,0.25,0],[1,0.5,0],[1,0.75,0]];outlineConnect=0;fontColor=#232F3E;gradientColor=#F78E04;gradientDirection=north;fillColor=#D05C17;strokeColor=#ffffff;dashed=0;verticalLabelPosition=bottom;verticalAlign=top;align=center;html=1;fontSize=12;fontStyle=0;aspect=fixed;shape=mxgraph.aws4.resourceIcon;resIcon=mxgraph.aws4.lambda;" parent="WfbO1BPPiGSPMY72WYpd-1" vertex="1">
                    <mxGeometry x="401" y="499" width="38" height="38" as="geometry"/>
                </mxCell>
                <mxCell id="WfbO1BPPiGSPMY72WYpd-34" value="Update Exercise" style="text;html=1;strokeColor=none;fillColor=none;align=center;verticalAlign=middle;whiteSpace=wrap;rounded=0;fontStyle=1" parent="WfbO1BPPiGSPMY72WYpd-1" vertex="1">
                    <mxGeometry x="341" y="504" width="60" height="30" as="geometry"/>
                </mxCell>
                <mxCell id="WfbO1BPPiGSPMY72WYpd-36" value="" style="group" parent="WfbO1BPPiGSPMY72WYpd-1" vertex="1" connectable="0">
                    <mxGeometry x="330" y="659" width="60" height="70" as="geometry"/>
                </mxCell>
                <mxCell id="WfbO1BPPiGSPMY72WYpd-21" value="" style="sketch=0;points=[[0,0,0],[0.25,0,0],[0.5,0,0],[0.75,0,0],[1,0,0],[0,1,0],[0.25,1,0],[0.5,1,0],[0.75,1,0],[1,1,0],[0,0.25,0],[0,0.5,0],[0,0.75,0],[1,0.25,0],[1,0.5,0],[1,0.75,0]];outlineConnect=0;fontColor=#232F3E;gradientColor=#4D72F3;gradientDirection=north;fillColor=#3334B9;strokeColor=#ffffff;dashed=0;verticalLabelPosition=bottom;verticalAlign=top;align=center;html=1;fontSize=12;fontStyle=0;aspect=fixed;shape=mxgraph.aws4.resourceIcon;resIcon=mxgraph.aws4.dynamodb;" parent="WfbO1BPPiGSPMY72WYpd-36" vertex="1">
                    <mxGeometry x="10" width="40" height="40" as="geometry"/>
                </mxCell>
                <mxCell id="WfbO1BPPiGSPMY72WYpd-25" value="ExercisesDB" style="text;html=1;strokeColor=none;fillColor=none;align=center;verticalAlign=middle;whiteSpace=wrap;rounded=0;fontStyle=1" parent="WfbO1BPPiGSPMY72WYpd-36" vertex="1">
                    <mxGeometry y="40" width="60" height="30" as="geometry"/>
                </mxCell>
                <mxCell id="WfbO1BPPiGSPMY72WYpd-50" style="edgeStyle=orthogonalEdgeStyle;rounded=1;orthogonalLoop=1;jettySize=auto;html=1;exitX=0.5;exitY=1;exitDx=0;exitDy=0;exitPerimeter=0;entryX=0.5;entryY=0;entryDx=0;entryDy=0;entryPerimeter=0;startArrow=none;startFill=0;" parent="WfbO1BPPiGSPMY72WYpd-1" source="WfbO1BPPiGSPMY72WYpd-37" target="WfbO1BPPiGSPMY72WYpd-20" edge="1">
                    <mxGeometry relative="1" as="geometry"/>
                </mxCell>
                <mxCell id="WfbO1BPPiGSPMY72WYpd-37" value="" style="sketch=0;points=[[0,0,0],[0.25,0,0],[0.5,0,0],[0.75,0,0],[1,0,0],[0,1,0],[0.25,1,0],[0.5,1,0],[0.75,1,0],[1,1,0],[0,0.25,0],[0,0.5,0],[0,0.75,0],[1,0.25,0],[1,0.5,0],[1,0.75,0]];outlineConnect=0;fontColor=#232F3E;gradientColor=#F78E04;gradientDirection=north;fillColor=#D05C17;strokeColor=#ffffff;dashed=0;verticalLabelPosition=bottom;verticalAlign=top;align=center;html=1;fontSize=12;fontStyle=0;aspect=fixed;shape=mxgraph.aws4.resourceIcon;resIcon=mxgraph.aws4.lambda;" parent="WfbO1BPPiGSPMY72WYpd-1" vertex="1">
                    <mxGeometry x="640" y="500" width="38" height="38" as="geometry"/>
                </mxCell>
                <mxCell id="WfbO1BPPiGSPMY72WYpd-38" value="Add Exercise" style="text;html=1;strokeColor=none;fillColor=none;align=center;verticalAlign=middle;whiteSpace=wrap;rounded=0;fontStyle=1" parent="WfbO1BPPiGSPMY72WYpd-1" vertex="1">
                    <mxGeometry x="580" y="504" width="60" height="30" as="geometry"/>
                </mxCell>
                <mxCell id="WfbO1BPPiGSPMY72WYpd-49" style="edgeStyle=orthogonalEdgeStyle;rounded=1;orthogonalLoop=1;jettySize=auto;html=1;exitX=0.5;exitY=1;exitDx=0;exitDy=0;exitPerimeter=0;entryX=0.5;entryY=0;entryDx=0;entryDy=0;entryPerimeter=0;startArrow=classic;startFill=1;" parent="WfbO1BPPiGSPMY72WYpd-1" source="WfbO1BPPiGSPMY72WYpd-39" target="WfbO1BPPiGSPMY72WYpd-21" edge="1">
                    <mxGeometry relative="1" as="geometry"/>
                </mxCell>
                <mxCell id="WfbO1BPPiGSPMY72WYpd-39" value="" style="sketch=0;points=[[0,0,0],[0.25,0,0],[0.5,0,0],[0.75,0,0],[1,0,0],[0,1,0],[0.25,1,0],[0.5,1,0],[0.75,1,0],[1,1,0],[0,0.25,0],[0,0.5,0],[0,0.75,0],[1,0.25,0],[1,0.5,0],[1,0.75,0]];outlineConnect=0;fontColor=#232F3E;gradientColor=#F78E04;gradientDirection=north;fillColor=#D05C17;strokeColor=#ffffff;dashed=0;verticalLabelPosition=bottom;verticalAlign=top;align=center;html=1;fontSize=12;fontStyle=0;aspect=fixed;shape=mxgraph.aws4.resourceIcon;resIcon=mxgraph.aws4.lambda;" parent="WfbO1BPPiGSPMY72WYpd-1" vertex="1">
                    <mxGeometry x="521" y="501" width="38" height="38" as="geometry"/>
                </mxCell>
                <mxCell id="WfbO1BPPiGSPMY72WYpd-40" value="Fetch Exercises" style="text;html=1;strokeColor=none;fillColor=none;align=center;verticalAlign=middle;whiteSpace=wrap;rounded=0;fontStyle=1" parent="WfbO1BPPiGSPMY72WYpd-1" vertex="1">
                    <mxGeometry x="461" y="505" width="60" height="30" as="geometry"/>
                </mxCell>
                <mxCell id="WfbO1BPPiGSPMY72WYpd-54" style="edgeStyle=orthogonalEdgeStyle;rounded=1;orthogonalLoop=1;jettySize=auto;html=1;exitX=0.5;exitY=1;exitDx=0;exitDy=0;exitPerimeter=0;entryX=0.5;entryY=0;entryDx=0;entryDy=0;entryPerimeter=0;startArrow=classic;startFill=1;" parent="WfbO1BPPiGSPMY72WYpd-1" source="WfbO1BPPiGSPMY72WYpd-51" target="WfbO1BPPiGSPMY72WYpd-20" edge="1">
                    <mxGeometry relative="1" as="geometry"/>
                </mxCell>
                <mxCell id="WfbO1BPPiGSPMY72WYpd-51" value="" style="sketch=0;points=[[0,0,0],[0.25,0,0],[0.5,0,0],[0.75,0,0],[1,0,0],[0,1,0],[0.25,1,0],[0.5,1,0],[0.75,1,0],[1,1,0],[0,0.25,0],[0,0.5,0],[0,0.75,0],[1,0.25,0],[1,0.5,0],[1,0.75,0]];outlineConnect=0;fontColor=#232F3E;gradientColor=#F78E04;gradientDirection=north;fillColor=#D05C17;strokeColor=#ffffff;dashed=0;verticalLabelPosition=bottom;verticalAlign=top;align=center;html=1;fontSize=12;fontStyle=0;aspect=fixed;shape=mxgraph.aws4.resourceIcon;resIcon=mxgraph.aws4.lambda;" parent="WfbO1BPPiGSPMY72WYpd-1" vertex="1">
                    <mxGeometry x="760" y="499" width="38" height="38" as="geometry"/>
                </mxCell>
                <mxCell id="WfbO1BPPiGSPMY72WYpd-52" value="Fetch Exercise" style="text;html=1;strokeColor=none;fillColor=none;align=center;verticalAlign=middle;whiteSpace=wrap;rounded=0;fontStyle=1" parent="WfbO1BPPiGSPMY72WYpd-1" vertex="1">
                    <mxGeometry x="700" y="504" width="60" height="30" as="geometry"/>
                </mxCell>
                <mxCell id="WfbO1BPPiGSPMY72WYpd-66" style="edgeStyle=orthogonalEdgeStyle;rounded=1;orthogonalLoop=1;jettySize=auto;html=1;exitX=0.5;exitY=1;exitDx=0;exitDy=0;exitPerimeter=0;entryX=0.75;entryY=0;entryDx=0;entryDy=0;startArrow=none;startFill=0;" parent="WfbO1BPPiGSPMY72WYpd-1" source="WfbO1BPPiGSPMY72WYpd-61" target="WfbO1BPPiGSPMY72WYpd-65" edge="1">
                    <mxGeometry relative="1" as="geometry"/>
                </mxCell>
                <mxCell id="WfbO1BPPiGSPMY72WYpd-61" value="" style="sketch=0;points=[[0,0,0],[0.25,0,0],[0.5,0,0],[0.75,0,0],[1,0,0],[0,1,0],[0.25,1,0],[0.5,1,0],[0.75,1,0],[1,1,0],[0,0.25,0],[0,0.5,0],[0,0.75,0],[1,0.25,0],[1,0.5,0],[1,0.75,0]];points=[[0,0,0],[0.25,0,0],[0.5,0,0],[0.75,0,0],[1,0,0],[0,1,0],[0.25,1,0],[0.5,1,0],[0.75,1,0],[1,1,0],[0,0.25,0],[0,0.5,0],[0,0.75,0],[1,0.25,0],[1,0.5,0],[1,0.75,0]];outlineConnect=0;fontColor=#232F3E;gradientColor=#F34482;gradientDirection=north;fillColor=#BC1356;strokeColor=#ffffff;dashed=0;verticalLabelPosition=bottom;verticalAlign=top;align=center;html=1;fontSize=12;fontStyle=0;aspect=fixed;shape=mxgraph.aws4.resourceIcon;resIcon=mxgraph.aws4.cloudformation;" parent="WfbO1BPPiGSPMY72WYpd-1" vertex="1">
                    <mxGeometry x="661" y="240" width="42" height="42" as="geometry"/>
                </mxCell>
                <mxCell id="WfbO1BPPiGSPMY72WYpd-64" style="edgeStyle=orthogonalEdgeStyle;rounded=1;orthogonalLoop=1;jettySize=auto;html=1;exitX=0.5;exitY=1;exitDx=0;exitDy=0;exitPerimeter=0;entryX=0.5;entryY=0;entryDx=0;entryDy=0;entryPerimeter=0;startArrow=none;startFill=0;" parent="WfbO1BPPiGSPMY72WYpd-1" source="WfbO1BPPiGSPMY72WYpd-62" target="WfbO1BPPiGSPMY72WYpd-61" edge="1">
                    <mxGeometry relative="1" as="geometry"/>
                </mxCell>
                <mxCell id="WfbO1BPPiGSPMY72WYpd-62" value="" style="sketch=0;points=[[0,0,0],[0.25,0,0],[0.5,0,0],[0.75,0,0],[1,0,0],[0,1,0],[0.25,1,0],[0.5,1,0],[0.75,1,0],[1,1,0],[0,0.25,0],[0,0.5,0],[0,0.75,0],[1,0.25,0],[1,0.5,0],[1,0.75,0]];outlineConnect=0;fontColor=#232F3E;gradientColor=#4D72F3;gradientDirection=north;fillColor=#3334B9;strokeColor=#ffffff;dashed=0;verticalLabelPosition=bottom;verticalAlign=top;align=center;html=1;fontSize=12;fontStyle=0;aspect=fixed;shape=mxgraph.aws4.resourceIcon;resIcon=mxgraph.aws4.codepipeline;" parent="WfbO1BPPiGSPMY72WYpd-1" vertex="1">
                    <mxGeometry x="663" y="180" width="38" height="38" as="geometry"/>
                </mxCell>
                <mxCell id="WfbO1BPPiGSPMY72WYpd-67" value="" style="group" parent="WfbO1BPPiGSPMY72WYpd-1" vertex="1" connectable="0">
                    <mxGeometry x="378" y="380" width="202" height="40" as="geometry"/>
                </mxCell>
                <mxCell id="WfbO1BPPiGSPMY72WYpd-27" value="" style="sketch=0;points=[[0,0,0],[0.25,0,0],[0.5,0,0],[0.75,0,0],[1,0,0],[0,1,0],[0.25,1,0],[0.5,1,0],[0.75,1,0],[1,1,0],[0,0.25,0],[0,0.5,0],[0,0.75,0],[1,0.25,0],[1,0.5,0],[1,0.75,0]];outlineConnect=0;fontColor=#232F3E;gradientColor=#945DF2;gradientDirection=north;fillColor=#5A30B5;strokeColor=#ffffff;dashed=0;verticalLabelPosition=bottom;verticalAlign=top;align=center;html=1;fontSize=12;fontStyle=0;aspect=fixed;shape=mxgraph.aws4.resourceIcon;resIcon=mxgraph.aws4.api_gateway;" parent="WfbO1BPPiGSPMY72WYpd-67" vertex="1">
                    <mxGeometry x="82" width="40" height="40" as="geometry"/>
                </mxCell>
                <mxCell id="WfbO1BPPiGSPMY72WYpd-29" value="/api/admin/" style="text;html=1;strokeColor=none;fillColor=none;align=center;verticalAlign=middle;whiteSpace=wrap;rounded=0;fontStyle=1" parent="WfbO1BPPiGSPMY72WYpd-67" vertex="1">
                    <mxGeometry y="5" width="60" height="30" as="geometry"/>
                </mxCell>
                <mxCell id="WfbO1BPPiGSPMY72WYpd-57" value="/api/user/" style="text;html=1;strokeColor=none;fillColor=none;align=center;verticalAlign=middle;whiteSpace=wrap;rounded=0;fontStyle=1" parent="WfbO1BPPiGSPMY72WYpd-67" vertex="1">
                    <mxGeometry x="142" y="5" width="60" height="30" as="geometry"/>
                </mxCell>
                <mxCell id="WfbO1BPPiGSPMY72WYpd-4" value="&lt;h1&gt;Exercise Challenge App Architecture&lt;/h1&gt;&lt;p&gt;This diagram will describe the High-Level architecture of an Exercise Challenge App.&amp;nbsp;&lt;/p&gt;" style="text;html=1;strokeColor=none;fillColor=none;spacing=5;spacingTop=-20;whiteSpace=wrap;overflow=hidden;rounded=0;" parent="1" vertex="1">
                    <mxGeometry x="40" y="10" width="490" height="120" as="geometry"/>
                </mxCell>
                <mxCell id="WfbO1BPPiGSPMY72WYpd-6" value="" style="group" parent="1" vertex="1" connectable="0">
                    <mxGeometry x="730" y="10" width="140" height="105" as="geometry"/>
                </mxCell>
                <mxCell id="WfbO1BPPiGSPMY72WYpd-2" value="" style="dashed=0;outlineConnect=0;html=1;align=center;labelPosition=center;verticalLabelPosition=bottom;verticalAlign=top;shape=mxgraph.weblogos.github" parent="WfbO1BPPiGSPMY72WYpd-6" vertex="1">
                    <mxGeometry x="32.5" width="75" height="75" as="geometry"/>
                </mxCell>
                <mxCell id="WfbO1BPPiGSPMY72WYpd-5" value="exercise-challenge-app" style="text;html=1;strokeColor=none;fillColor=none;align=center;verticalAlign=middle;whiteSpace=wrap;rounded=0;fontStyle=1" parent="WfbO1BPPiGSPMY72WYpd-6" vertex="1">
                    <mxGeometry y="75" width="140" height="30" as="geometry"/>
                </mxCell>
                <mxCell id="WfbO1BPPiGSPMY72WYpd-7" value="" style="strokeWidth=1;shadow=0;dashed=0;align=center;html=1;shape=mxgraph.mockup.containers.browserWindow;rSize=0;strokeColor=#666666;strokeColor2=#008cff;strokeColor3=#c4c4c4;mainText=,;recursiveResize=0;" parent="1" vertex="1">
                    <mxGeometry x="-440" y="295" width="420" height="210" as="geometry"/>
                </mxCell>
                <mxCell id="WfbO1BPPiGSPMY72WYpd-8" value="Page" style="strokeWidth=1;shadow=0;dashed=0;align=center;html=1;shape=mxgraph.mockup.containers.anchor;fontSize=17;fontColor=#666666;align=left;" parent="WfbO1BPPiGSPMY72WYpd-7" vertex="1">
                    <mxGeometry x="60" y="12" width="110" height="26" as="geometry"/>
                </mxCell>
                <mxCell id="WfbO1BPPiGSPMY72WYpd-9" value="exercise-challenge-app-url" style="strokeWidth=1;shadow=0;dashed=0;align=center;html=1;shape=mxgraph.mockup.containers.anchor;rSize=0;fontSize=17;fontColor=#666666;align=left;" parent="WfbO1BPPiGSPMY72WYpd-7" vertex="1">
                    <mxGeometry x="130" y="60" width="250" height="26" as="geometry"/>
                </mxCell>
                <mxCell id="WfbO1BPPiGSPMY72WYpd-19" value="Serve to Web" style="edgeStyle=orthogonalEdgeStyle;rounded=1;orthogonalLoop=1;jettySize=auto;html=1;exitX=0.5;exitY=1;exitDx=0;exitDy=0;exitPerimeter=0;" parent="1" source="WfbO1BPPiGSPMY72WYpd-14" target="WfbO1BPPiGSPMY72WYpd-7" edge="1">
                    <mxGeometry relative="1" as="geometry">
                        <Array as="points">
                            <mxPoint x="179" y="320"/>
                        </Array>
                    </mxGeometry>
                </mxCell>
                <mxCell id="WfbO1BPPiGSPMY72WYpd-56" value="/api/" style="edgeStyle=orthogonalEdgeStyle;rounded=1;orthogonalLoop=1;jettySize=auto;html=1;exitX=0.5;exitY=0;exitDx=0;exitDy=0;exitPerimeter=0;entryX=1;entryY=0.548;entryDx=0;entryDy=0;entryPerimeter=0;startArrow=classic;startFill=1;fontStyle=1" parent="1" source="WfbO1BPPiGSPMY72WYpd-27" target="WfbO1BPPiGSPMY72WYpd-7" edge="1">
                    <mxGeometry relative="1" as="geometry">
                        <Array as="points">
                            <mxPoint x="521" y="410"/>
                        </Array>
                    </mxGeometry>
                </mxCell>
            </root>
        </mxGraphModel>
    </diagram>
    <diagram id="xePHQBaB_7Vkiq--H4rs" name="UX">
        <mxGraphModel dx="1294" dy="452" grid="1" gridSize="10" guides="1" tooltips="1" connect="1" arrows="1" fold="1" page="1" pageScale="1" pageWidth="827" pageHeight="1169" math="0" shadow="0">
            <root>
                <mxCell id="5fs-KiKiOeMeVRMH9UeI-0"/>
                <mxCell id="5fs-KiKiOeMeVRMH9UeI-1" parent="5fs-KiKiOeMeVRMH9UeI-0"/>
                <mxCell id="5fs-KiKiOeMeVRMH9UeI-5" value="&lt;h1&gt;UX Flow&lt;/h1&gt;&lt;p&gt;A high-level diagram illustrating the desired UX for the Exercise Challenge App&lt;/p&gt;" style="text;html=1;strokeColor=none;fillColor=none;spacing=5;spacingTop=-20;whiteSpace=wrap;overflow=hidden;rounded=0;" parent="5fs-KiKiOeMeVRMH9UeI-1" vertex="1">
                    <mxGeometry x="80" y="40" width="190" height="120" as="geometry"/>
                </mxCell>
                <mxCell id="5fs-KiKiOeMeVRMH9UeI-9" style="edgeStyle=orthogonalEdgeStyle;rounded=1;orthogonalLoop=1;jettySize=auto;html=1;exitX=1;exitY=0.5;exitDx=0;exitDy=0;entryX=0;entryY=0.5;entryDx=0;entryDy=0;" parent="5fs-KiKiOeMeVRMH9UeI-1" source="5fs-KiKiOeMeVRMH9UeI-6" target="5fs-KiKiOeMeVRMH9UeI-7" edge="1">
                    <mxGeometry relative="1" as="geometry"/>
                </mxCell>
                <mxCell id="5fs-KiKiOeMeVRMH9UeI-10" style="edgeStyle=orthogonalEdgeStyle;rounded=1;orthogonalLoop=1;jettySize=auto;html=1;exitX=1;exitY=0.5;exitDx=0;exitDy=0;entryX=0;entryY=0.5;entryDx=0;entryDy=0;" parent="5fs-KiKiOeMeVRMH9UeI-1" source="5fs-KiKiOeMeVRMH9UeI-6" target="5fs-KiKiOeMeVRMH9UeI-8" edge="1">
                    <mxGeometry relative="1" as="geometry"/>
                </mxCell>
                <mxCell id="5fs-KiKiOeMeVRMH9UeI-6" value="Splashscreen" style="rounded=1;whiteSpace=wrap;html=1;" parent="5fs-KiKiOeMeVRMH9UeI-1" vertex="1">
                    <mxGeometry x="80" y="320" width="120" height="60" as="geometry"/>
                </mxCell>
                <mxCell id="5fs-KiKiOeMeVRMH9UeI-15" style="edgeStyle=orthogonalEdgeStyle;rounded=1;orthogonalLoop=1;jettySize=auto;html=1;exitX=1;exitY=0.5;exitDx=0;exitDy=0;entryX=0;entryY=0.5;entryDx=0;entryDy=0;" parent="5fs-KiKiOeMeVRMH9UeI-1" source="5fs-KiKiOeMeVRMH9UeI-7" target="5fs-KiKiOeMeVRMH9UeI-14" edge="1">
                    <mxGeometry relative="1" as="geometry"/>
                </mxCell>
                <mxCell id="5fs-KiKiOeMeVRMH9UeI-7" value="Login" style="rounded=1;whiteSpace=wrap;html=1;" parent="5fs-KiKiOeMeVRMH9UeI-1" vertex="1">
                    <mxGeometry x="280" y="280" width="120" height="60" as="geometry"/>
                </mxCell>
                <mxCell id="5fs-KiKiOeMeVRMH9UeI-24" style="edgeStyle=orthogonalEdgeStyle;rounded=1;orthogonalLoop=1;jettySize=auto;html=1;exitX=0.5;exitY=1;exitDx=0;exitDy=0;entryX=0.5;entryY=0;entryDx=0;entryDy=0;" parent="5fs-KiKiOeMeVRMH9UeI-1" source="5fs-KiKiOeMeVRMH9UeI-8" target="5fs-KiKiOeMeVRMH9UeI-20" edge="1">
                    <mxGeometry relative="1" as="geometry"/>
                </mxCell>
                <mxCell id="5fs-KiKiOeMeVRMH9UeI-8" value="Sign Up" style="rounded=1;whiteSpace=wrap;html=1;" parent="5fs-KiKiOeMeVRMH9UeI-1" vertex="1">
                    <mxGeometry x="280" y="360" width="120" height="60" as="geometry"/>
                </mxCell>
                <mxCell id="5fs-KiKiOeMeVRMH9UeI-13" style="edgeStyle=orthogonalEdgeStyle;rounded=1;orthogonalLoop=1;jettySize=auto;html=1;exitX=1;exitY=0.5;exitDx=0;exitDy=0;entryX=0;entryY=0.5;entryDx=0;entryDy=0;" parent="5fs-KiKiOeMeVRMH9UeI-1" source="5fs-KiKiOeMeVRMH9UeI-11" target="5fs-KiKiOeMeVRMH9UeI-12" edge="1">
                    <mxGeometry relative="1" as="geometry"/>
                </mxCell>
                <mxCell id="5fs-KiKiOeMeVRMH9UeI-19" style="edgeStyle=orthogonalEdgeStyle;rounded=1;orthogonalLoop=1;jettySize=auto;html=1;exitX=1;exitY=0.5;exitDx=0;exitDy=0;entryX=0;entryY=0.5;entryDx=0;entryDy=0;" parent="5fs-KiKiOeMeVRMH9UeI-1" source="5fs-KiKiOeMeVRMH9UeI-11" target="5fs-KiKiOeMeVRMH9UeI-18" edge="1">
                    <mxGeometry relative="1" as="geometry"/>
                </mxCell>
                <mxCell id="5fs-KiKiOeMeVRMH9UeI-11" value="Profile" style="rounded=1;whiteSpace=wrap;html=1;" parent="5fs-KiKiOeMeVRMH9UeI-1" vertex="1">
                    <mxGeometry x="480" y="160" width="120" height="60" as="geometry"/>
                </mxCell>
                <mxCell id="5fs-KiKiOeMeVRMH9UeI-12" value="Edit Profile" style="rounded=1;whiteSpace=wrap;html=1;" parent="5fs-KiKiOeMeVRMH9UeI-1" vertex="1">
                    <mxGeometry x="640" y="160" width="120" height="60" as="geometry"/>
                </mxCell>
                <mxCell id="5fs-KiKiOeMeVRMH9UeI-17" style="edgeStyle=orthogonalEdgeStyle;rounded=1;orthogonalLoop=1;jettySize=auto;html=1;exitX=0.5;exitY=0;exitDx=0;exitDy=0;entryX=0.5;entryY=1;entryDx=0;entryDy=0;" parent="5fs-KiKiOeMeVRMH9UeI-1" source="5fs-KiKiOeMeVRMH9UeI-14" target="5fs-KiKiOeMeVRMH9UeI-11" edge="1">
                    <mxGeometry relative="1" as="geometry"/>
                </mxCell>
                <mxCell id="5fs-KiKiOeMeVRMH9UeI-27" style="edgeStyle=orthogonalEdgeStyle;rounded=1;orthogonalLoop=1;jettySize=auto;html=1;exitX=0.5;exitY=1;exitDx=0;exitDy=0;entryX=0.5;entryY=0;entryDx=0;entryDy=0;" parent="5fs-KiKiOeMeVRMH9UeI-1" source="5fs-KiKiOeMeVRMH9UeI-14" target="5fs-KiKiOeMeVRMH9UeI-26" edge="1">
                    <mxGeometry relative="1" as="geometry"/>
                </mxCell>
                <mxCell id="5fs-KiKiOeMeVRMH9UeI-29" style="edgeStyle=orthogonalEdgeStyle;rounded=1;orthogonalLoop=1;jettySize=auto;html=1;exitX=0.5;exitY=1;exitDx=0;exitDy=0;entryX=0.5;entryY=0;entryDx=0;entryDy=0;" parent="5fs-KiKiOeMeVRMH9UeI-1" source="5fs-KiKiOeMeVRMH9UeI-14" target="5fs-KiKiOeMeVRMH9UeI-28" edge="1">
                    <mxGeometry relative="1" as="geometry"/>
                </mxCell>
                <mxCell id="5fs-KiKiOeMeVRMH9UeI-14" value="Landing" style="rounded=1;whiteSpace=wrap;html=1;" parent="5fs-KiKiOeMeVRMH9UeI-1" vertex="1">
                    <mxGeometry x="480" y="320" width="120" height="60" as="geometry"/>
                </mxCell>
                <mxCell id="5fs-KiKiOeMeVRMH9UeI-18" value="Exercise History" style="rounded=1;whiteSpace=wrap;html=1;" parent="5fs-KiKiOeMeVRMH9UeI-1" vertex="1">
                    <mxGeometry x="640" y="80" width="120" height="60" as="geometry"/>
                </mxCell>
                <mxCell id="5fs-KiKiOeMeVRMH9UeI-23" style="edgeStyle=orthogonalEdgeStyle;rounded=1;orthogonalLoop=1;jettySize=auto;html=1;exitX=0.5;exitY=1;exitDx=0;exitDy=0;entryX=0.5;entryY=0;entryDx=0;entryDy=0;" parent="5fs-KiKiOeMeVRMH9UeI-1" source="5fs-KiKiOeMeVRMH9UeI-20" target="5fs-KiKiOeMeVRMH9UeI-21" edge="1">
                    <mxGeometry relative="1" as="geometry"/>
                </mxCell>
                <mxCell id="5fs-KiKiOeMeVRMH9UeI-20" value="Enter Personal Details" style="rounded=1;whiteSpace=wrap;html=1;" parent="5fs-KiKiOeMeVRMH9UeI-1" vertex="1">
                    <mxGeometry x="280" y="480" width="120" height="60" as="geometry"/>
                </mxCell>
                <mxCell id="5fs-KiKiOeMeVRMH9UeI-25" style="edgeStyle=orthogonalEdgeStyle;rounded=1;orthogonalLoop=1;jettySize=auto;html=1;exitX=1;exitY=0.5;exitDx=0;exitDy=0;entryX=0;entryY=0.5;entryDx=0;entryDy=0;" parent="5fs-KiKiOeMeVRMH9UeI-1" source="5fs-KiKiOeMeVRMH9UeI-21" target="5fs-KiKiOeMeVRMH9UeI-14" edge="1">
                    <mxGeometry relative="1" as="geometry"/>
                </mxCell>
                <mxCell id="5fs-KiKiOeMeVRMH9UeI-21" value="Enter Team ID" style="rounded=1;whiteSpace=wrap;html=1;" parent="5fs-KiKiOeMeVRMH9UeI-1" vertex="1">
                    <mxGeometry x="280" y="560" width="120" height="60" as="geometry"/>
                </mxCell>
                <mxCell id="5fs-KiKiOeMeVRMH9UeI-31" style="edgeStyle=orthogonalEdgeStyle;rounded=1;orthogonalLoop=1;jettySize=auto;html=1;exitX=0.5;exitY=1;exitDx=0;exitDy=0;entryX=0.5;entryY=0;entryDx=0;entryDy=0;" parent="5fs-KiKiOeMeVRMH9UeI-1" source="5fs-KiKiOeMeVRMH9UeI-26" target="5fs-KiKiOeMeVRMH9UeI-30" edge="1">
                    <mxGeometry relative="1" as="geometry"/>
                </mxCell>
                <mxCell id="5fs-KiKiOeMeVRMH9UeI-26" value="Add Exercise" style="rounded=1;whiteSpace=wrap;html=1;" parent="5fs-KiKiOeMeVRMH9UeI-1" vertex="1">
                    <mxGeometry x="480" y="440" width="120" height="60" as="geometry"/>
                </mxCell>
                <mxCell id="5fs-KiKiOeMeVRMH9UeI-28" value="View Team Stats" style="rounded=1;whiteSpace=wrap;html=1;" parent="5fs-KiKiOeMeVRMH9UeI-1" vertex="1">
                    <mxGeometry x="640" y="440" width="120" height="60" as="geometry"/>
                </mxCell>
                <mxCell id="5fs-KiKiOeMeVRMH9UeI-33" style="edgeStyle=orthogonalEdgeStyle;rounded=1;orthogonalLoop=1;jettySize=auto;html=1;exitX=0.5;exitY=1;exitDx=0;exitDy=0;" parent="5fs-KiKiOeMeVRMH9UeI-1" source="5fs-KiKiOeMeVRMH9UeI-30" target="5fs-KiKiOeMeVRMH9UeI-32" edge="1">
                    <mxGeometry relative="1" as="geometry"/>
                </mxCell>
                <mxCell id="5fs-KiKiOeMeVRMH9UeI-30" value="Choose Exercise" style="rounded=1;whiteSpace=wrap;html=1;" parent="5fs-KiKiOeMeVRMH9UeI-1" vertex="1">
                    <mxGeometry x="480" y="520" width="120" height="60" as="geometry"/>
                </mxCell>
                <mxCell id="5fs-KiKiOeMeVRMH9UeI-36" style="edgeStyle=orthogonalEdgeStyle;rounded=1;orthogonalLoop=1;jettySize=auto;html=1;exitX=0.5;exitY=1;exitDx=0;exitDy=0;entryX=0.5;entryY=0;entryDx=0;entryDy=0;" parent="5fs-KiKiOeMeVRMH9UeI-1" source="5fs-KiKiOeMeVRMH9UeI-32" target="5fs-KiKiOeMeVRMH9UeI-34" edge="1">
                    <mxGeometry relative="1" as="geometry"/>
                </mxCell>
                <mxCell id="5fs-KiKiOeMeVRMH9UeI-32" value="How long" style="rounded=1;whiteSpace=wrap;html=1;" parent="5fs-KiKiOeMeVRMH9UeI-1" vertex="1">
                    <mxGeometry x="480" y="600" width="120" height="60" as="geometry"/>
                </mxCell>
                <mxCell id="5fs-KiKiOeMeVRMH9UeI-34" value="Confirm &amp;amp; Save" style="rounded=1;whiteSpace=wrap;html=1;" parent="5fs-KiKiOeMeVRMH9UeI-1" vertex="1">
                    <mxGeometry x="480" y="680" width="120" height="60" as="geometry"/>
                </mxCell>
            </root>
        </mxGraphModel>
    </diagram>
</mxfile>